<?xml version="1.0" standalone="no"?>
<!DOCTYPE svg PUBLIC "-//W3C//DTD SVG 20010904//EN"
 "http://www.w3.org/TR/2001/REC-SVG-20010904/DTD/svg10.dtd">
<svg version="1.0" xmlns="http://www.w3.org/2000/svg"
 width="2048.000000pt" height="2048.000000pt" viewBox="0 0 2048.000000 2048.000000"
 preserveAspectRatio="xMidYMid meet">

<g transform="translate(0.000000,2048.000000) scale(0.100000,-0.100000)"
fill="#000000" stroke="none">
<path d="M9875 20473 c-1875 -75 -3589 -611 -5161 -1613 -1003 -638 -1939
-1510 -2675 -2490 -1127 -1502 -1821 -3302 -1993 -5175 -33 -351 -40 -534 -40
-955 0 -421 7 -604 40 -955 194 -2114 1044 -4110 2439 -5730 302 -350 720
-769 1068 -1068 867 -746 1842 -1339 2891 -1759 1608 -643 3378 -865 5111
-643 2024 260 3905 1112 5450 2470 1751 1539 2935 3652 3324 5935 107 627 146
1088 146 1750 0 449 -8 626 -45 1006 -250 2561 -1450 4917 -3388 6647 -1546
1381 -3512 2268 -5562 2511 -529 63 -1127 89 -1605 69z m745 -1153 c876 -39
1687 -186 2492 -454 1172 -389 2241 -1010 3178 -1844 287 -256 767 -751 891
-920 75 -102 108 -269 80 -404 -27 -130 -142 -283 -256 -340 -130 -66 -53 -62
-1202 -66 l-1042 -3 -18 -47 c-9 -26 -878 -2288 -1929 -5027 l-1911 -4980
1665 -3 c916 -1 1669 1 1673 5 4 5 755 1963 1669 4353 913 2390 1674 4374
1690 4408 38 81 142 187 221 226 207 100 441 64 599 -94 64 -64 103 -134 193
-350 826 -1967 939 -4133 322 -6175 -433 -1432 -1214 -2734 -2280 -3800 -912
-911 -1970 -1598 -3175 -2060 -1581 -606 -3354 -752 -5034 -415 -233 47 -297
73 -390 161 -75 70 -130 167 -151 266 -22 101 -22 16863 -1 16964 21 98 69
184 145 260 95 95 154 120 399 169 706 142 1462 201 2172 170z m-5947 -2175
c85 -22 154 -61 219 -123 68 -64 109 -126 140 -208 l23 -59 0 -6515 0 -6515
-23 -59 c-31 -82 -72 -144 -140 -208 -159 -152 -395 -182 -593 -77 -95 51
-445 383 -744 705 -924 998 -1619 2215 -2015 3529 -466 1544 -511 3199 -130
4771 216 890 558 1728 1030 2519 255 426 565 857 895 1241 330 385 836 884
966 954 110 58 254 76 372 45z"/>
<path d="M8730 10240 l0 -520 1510 0 1510 0 0 520 0 520 -1510 0 -1510 0 0
-520z"/>
</g>
</svg>
